<svg xmlns="http://www.w3.org/2000/svg" xmlns:xlink="http://www.w3.org/1999/xlink" viewBox="0 0 1920 1080" data-background-color="transparent" preserveAspectRatio="xMidYMid meet" height="1080" width="2056">
    <g id="tight-bounds">
        <svg viewBox="0 0 1920 1080" height="1080" width="1920">
            <g>
                <svg viewBox="0 0 658.640453 193.731816" height="1080" width="1920">
                    <g>
                        <rect width="5.989536143839924" height="144.73181573245407" x="171.4515026926832" y="0" fill="#00aced" opacity="1" stroke-width="0" stroke="transparent" fill-opacity="1" class="rect-o-0" data-fill-palette-color="primary" rx="0" id="o-0" data-palette-color="#00aced"/>
                    </g>
                    <g transform="matrix(1,0,0,1,193.12045282563287,0.36002939236928455)" style="&#10;    transform: none;&#10;">
                        <svg viewBox="0 0 1920 144.0117569477155" height="144.0117569477155" width="1920">
                            <g id="textblocktransform">
                                <svg viewBox="0 0 1920 144.0117569477155" height="144.0117569477155" width="1920" id="textblock">
                                    <g>
                                        <svg viewBox="0 0 1920 144.0117569477155" height="144.0117569477155" width="1920">
                                            <g transform="matrix(1,0,0,1,0,0)" style="&#10;    /* transform: none; */&#10;    transform: translateX(-560px);&#10;">
                                                <svg width="1920" viewBox="2.84999942779541 -35.30000305175781 213.30001831054688 74.30000305175781" height="144.0117569477155" data-palette-color="#00aced">
                                                    <svg/>
                                                    <svg/>
                                                    <g class="wordmark-text-0" data-fill-palette-color="primary" id="text-0">
                                                        <path xmlns="http://www.w3.org/2000/svg" d="M14.9 0.35c-2.3 0-4.36-0.41-6.18-1.23-1.813-0.813-3.237-1.947-4.27-3.4-1.033-1.447-1.567-3.12-1.6-5.02v0h4.85c0.167 1.633 0.843 3.007 2.03 4.12 1.18 1.12 2.903 1.68 5.17 1.68v0c2.167 0 3.877-0.543 5.13-1.63 1.247-1.08 1.87-2.47 1.87-4.17v0c0-1.333-0.367-2.417-1.1-3.25-0.733-0.833-1.65-1.467-2.75-1.9-1.1-0.433-2.583-0.9-4.45-1.4v0c-2.3-0.6-4.14-1.2-5.52-1.8-1.387-0.6-2.57-1.543-3.55-2.83-0.987-1.28-1.48-3.003-1.48-5.17v0c0-1.9 0.483-3.583 1.45-5.05 0.967-1.467 2.327-2.6 4.08-3.4 1.747-0.8 3.753-1.2 6.02-1.2v0c3.267 0 5.943 0.817 8.03 2.45 2.08 1.633 3.253 3.8 3.52 6.5v0h-5c-0.167-1.333-0.867-2.51-2.1-3.53-1.233-1.013-2.867-1.52-4.9-1.52v0c-1.9 0-3.45 0.49-4.65 1.47-1.2 0.987-1.8 2.363-1.8 4.13v0c0 1.267 0.36 2.3 1.08 3.1 0.713 0.8 1.597 1.407 2.65 1.82 1.047 0.42 2.52 0.897 4.42 1.43v0c2.3 0.633 4.15 1.26 5.55 1.88 1.4 0.613 2.6 1.56 3.6 2.84 1 1.287 1.5 3.03 1.5 5.23v0c0 1.7-0.45 3.3-1.35 4.8-0.9 1.5-2.233 2.717-4 3.65-1.767 0.933-3.85 1.4-6.25 1.4zM49 0.35c-3.233 0-6.183-0.76-8.85-2.28-2.667-1.513-4.773-3.63-6.32-6.35-1.553-2.713-2.33-5.77-2.33-9.17v0c0-3.4 0.777-6.46 2.33-9.18 1.547-2.713 3.653-4.83 6.32-6.35 2.667-1.513 5.617-2.27 8.85-2.27v0c3.267 0 6.233 0.757 8.9 2.27 2.667 1.52 4.767 3.63 6.3 6.33 1.533 2.7 2.3 5.767 2.3 9.2v0c0 3.433-0.767 6.5-2.3 9.2-1.533 2.7-3.633 4.807-6.3 6.32-2.667 1.52-5.633 2.28-8.9 2.28zM49-3.6c2.433 0 4.627-0.567 6.58-1.7 1.947-1.133 3.48-2.75 4.6-4.85 1.113-2.1 1.67-4.533 1.67-7.3v0c0-2.8-0.557-5.243-1.67-7.33-1.12-2.08-2.647-3.687-4.58-4.82-1.933-1.133-4.133-1.7-6.6-1.7v0c-2.467 0-4.667 0.567-6.6 1.7-1.933 1.133-3.457 2.74-4.57 4.82-1.12 2.087-1.68 4.53-1.68 7.33v0c0 2.767 0.56 5.2 1.68 7.3 1.113 2.1 2.647 3.717 4.6 4.85 1.947 1.133 4.137 1.7 6.57 1.7zM70.8-17.45c0-3.4 0.767-6.46 2.3-9.18 1.533-2.713 3.627-4.837 6.28-6.37 2.647-1.533 5.587-2.3 8.82-2.3v0c3.8 0 7.117 0.917 9.95 2.75 2.833 1.833 4.9 4.433 6.2 7.8v0h-5.45c-0.967-2.1-2.357-3.717-4.17-4.85-1.82-1.133-3.997-1.7-6.53-1.7v0c-2.433 0-4.617 0.567-6.55 1.7-1.933 1.133-3.45 2.74-4.55 4.82-1.1 2.087-1.65 4.53-1.65 7.33v0c0 2.767 0.55 5.19 1.65 7.27 1.1 2.087 2.617 3.697 4.55 4.83 1.933 1.133 4.117 1.7 6.55 1.7v0c2.533 0 4.71-0.56 6.53-1.68 1.813-1.113 3.203-2.72 4.17-4.82v0h5.45c-1.3 3.333-3.367 5.907-6.2 7.72-2.833 1.82-6.15 2.73-9.95 2.73v0c-3.233 0-6.173-0.76-8.82-2.28-2.653-1.513-4.747-3.62-6.28-6.32-1.533-2.7-2.3-5.75-2.3-9.15zM111.1-34.85h4.55v34.85h-4.55zM146.8 0l-2.8-7.75h-15.2l-2.8 7.75h-4.8l12.6-34.65h5.25l12.55 34.65zM130.1-11.45h12.6l-6.3-17.6zM161.65-34.85v31.15h12.2v3.7h-16.75v-34.85z" fill="#00aced" fill-rule="nonzero" stroke="none" stroke-width="1" stroke-linecap="butt" stroke-linejoin="miter" stroke-miterlimit="10" stroke-dasharray="" stroke-dashoffset="0" font-family="none" font-weight="none" font-size="none" text-anchor="none" style="mix-blend-mode: normal" data-fill-palette-color="primary" opacity="1"/>
                                                        <path xmlns="http://www.w3.org/2000/svg" d="M3.85 3.8h4.55v34.85h-4.55zM43.55 3.75v34.9h-4.55l-18.3-27.75v27.75h-4.55v-34.9h4.55l18.3 27.7v-27.7zM62.35 39c-2.3 0-4.357-0.41-6.17-1.23-1.82-0.813-3.247-1.947-4.28-3.4-1.033-1.447-1.567-3.12-1.6-5.02v0h4.85c0.167 1.633 0.843 3.007 2.03 4.12 1.18 1.12 2.903 1.68 5.17 1.68v0c2.167 0 3.877-0.543 5.13-1.63 1.247-1.08 1.87-2.47 1.87-4.17v0c0-1.333-0.367-2.417-1.1-3.25-0.733-0.833-1.65-1.467-2.75-1.9-1.1-0.433-2.583-0.9-4.45-1.4v0c-2.3-0.6-4.14-1.2-5.52-1.8-1.387-0.6-2.57-1.543-3.55-2.83-0.987-1.28-1.48-3.003-1.48-5.17v0c0-1.9 0.483-3.583 1.45-5.05 0.967-1.467 2.327-2.6 4.08-3.4 1.747-0.8 3.753-1.2 6.02-1.2v0c3.267 0 5.943 0.817 8.03 2.45 2.08 1.633 3.253 3.8 3.52 6.5v0h-5c-0.167-1.333-0.867-2.51-2.1-3.53-1.233-1.013-2.867-1.52-4.9-1.52v0c-1.9 0-3.45 0.49-4.65 1.47-1.2 0.987-1.8 2.363-1.8 4.13v0c0 1.267 0.36 2.3 1.08 3.1 0.713 0.8 1.597 1.407 2.65 1.82 1.047 0.42 2.52 0.897 4.42 1.43v0c2.3 0.633 4.15 1.26 5.55 1.88 1.4 0.613 2.6 1.56 3.6 2.84 1 1.287 1.5 3.03 1.5 5.23v0c0 1.7-0.45 3.3-1.35 4.8-0.9 1.5-2.233 2.717-4 3.65-1.767 0.933-3.85 1.4-6.25 1.4zM80.65 3.8h4.55v34.85h-4.55zM124.8 13.9h-5.45c-0.967-2.033-2.367-3.61-4.2-4.73-1.833-1.113-3.967-1.67-6.4-1.67v0c-2.433 0-4.623 0.557-6.57 1.67-1.953 1.12-3.487 2.72-4.6 4.8-1.12 2.087-1.68 4.497-1.68 7.23v0c0 2.733 0.56 5.133 1.68 7.2 1.113 2.067 2.647 3.657 4.6 4.77 1.947 1.12 4.137 1.68 6.57 1.68v0c3.4 0 6.2-1.017 8.4-3.05 2.2-2.033 3.483-4.783 3.85-8.25v0h-13.9v-3.7h18.75v3.5c-0.267 2.867-1.167 5.49-2.7 7.87-1.533 2.387-3.55 4.27-6.05 5.65-2.5 1.387-5.283 2.08-8.35 2.08v0c-3.233 0-6.183-0.76-8.85-2.28-2.667-1.513-4.773-3.62-6.32-6.32-1.553-2.7-2.33-5.75-2.33-9.15v0c0-3.4 0.777-6.46 2.33-9.18 1.547-2.713 3.653-4.83 6.32-6.35 2.667-1.513 5.617-2.27 8.85-2.27v0c3.7 0 6.977 0.917 9.83 2.75 2.847 1.833 4.92 4.417 6.22 7.75zM154.15 3.8h4.55v34.85h-4.55v-15.8h-17.75v15.8h-4.55v-34.85h4.55v15.3h17.75zM164.3 3.8h23.6v3.7h-9.5v31.15h-4.55v-31.15h-9.55zM204.55 39c-2.3 0-4.357-0.41-6.17-1.23-1.82-0.813-3.247-1.947-4.28-3.4-1.033-1.447-1.567-3.12-1.6-5.02v0h4.85c0.167 1.633 0.843 3.007 2.03 4.12 1.18 1.12 2.903 1.68 5.17 1.68v0c2.167 0 3.877-0.543 5.13-1.63 1.247-1.08 1.87-2.47 1.87-4.17v0c0-1.333-0.367-2.417-1.1-3.25-0.733-0.833-1.65-1.467-2.75-1.9-1.1-0.433-2.583-0.9-4.45-1.4v0c-2.3-0.6-4.143-1.2-5.53-1.8-1.38-0.6-2.56-1.543-3.54-2.83-0.987-1.28-1.48-3.003-1.48-5.17v0c0-1.9 0.483-3.583 1.45-5.05 0.967-1.467 2.323-2.6 4.07-3.4 1.753-0.8 3.763-1.2 6.03-1.2v0c3.267 0 5.943 0.817 8.03 2.45 2.08 1.633 3.253 3.8 3.52 6.5v0h-5c-0.167-1.333-0.867-2.51-2.1-3.53-1.233-1.013-2.867-1.52-4.9-1.52v0c-1.9 0-3.45 0.49-4.65 1.47-1.2 0.987-1.8 2.363-1.8 4.13v0c0 1.267 0.36 2.3 1.08 3.1 0.713 0.8 1.597 1.407 2.65 1.82 1.047 0.42 2.52 0.897 4.42 1.43v0c2.3 0.633 4.15 1.26 5.55 1.88 1.4 0.613 2.6 1.56 3.6 2.84 1 1.287 1.5 3.03 1.5 5.23v0c0 1.7-0.45 3.3-1.35 4.8-0.9 1.5-2.233 2.717-4 3.65-1.767 0.933-3.85 1.4-6.25 1.4z" fill="#68d7ff" fill-rule="nonzero" stroke="none" stroke-width="1" stroke-linecap="butt" stroke-linejoin="miter" stroke-miterlimit="10" stroke-dasharray="" stroke-dashoffset="0" font-family="none" font-weight="none" font-size="none" text-anchor="none" style="mix-blend-mode: normal" data-fill-palette-color="secondary" opacity="1"/>
                                                    </g>
                                                </svg>
                                            </g>
                                        </svg>
                                    </g>
                                </svg>
                            </g>
                        </svg>
                    </g>
                    <g transform="matrix(1,0,0,1,0,0.36002939236928455)">
                        <svg viewBox="0 0 155.77208870357344 144.0117569477155" height="144.0117569477155" width="155.77208870357344">
                            <g>
                                <svg xmlns:dc="http://purl.org/dc/elements/1.1/" xmlns:cc="http://creativecommons.org/ns#" xmlns:rdf="http://www.w3.org/1999/02/22-rdf-syntax-ns#" xmlns:svg="http://www.w3.org/2000/svg" xmlns="http://www.w3.org/2000/svg" version="1.1" viewBox="15.000003814697266 25.19209861755371 270 249.6157989501953" xml:space="preserve" style="" x="0" y="0" fill-rule="evenodd" height="144.0117569477155" width="155.77208870357344" class="icon-icon-0" data-fill-palette-color="accent" id="icon-0"><path d="M148.528 25.212c-9.466 0.246-19.104 2.758-27.867 7.817C100.825 44.481 90.241 66.036 91.506 87.568 65.658 105.453 50.305 133.713 47.728 163.445c-1.146 0.565-2.283 1.101-3.403 1.747-27.952 16.138-37.653 52.35-21.521 80.291 16.138 27.952 52.35 37.653 80.291 21.521 1.101-0.636 2.175-1.327 3.219-2.023 27.083 12.662 59.289 13.491 87.74 0 17.991 11.767 41.843 13.442 61.621 2.023 27.952-16.138 37.653-52.35 21.521-80.291-5.99-10.376-14.772-18.268-24.832-23.268-1.191-14.657-5.52-29.23-13.336-42.767C231.219 107.152 220.683 96.104 208.586 87.752 209.337 76.535 206.952 65.035 200.952 54.642 189.879 35.464 169.414 24.669 148.528 25.212z m0.736 29.43c10.347-0.269 20.473 4.934 26.12 14.716 8.188 14.182 3.503 31.826-10.669 40.007-14.154 8.172-31.816 3.427-40.007-10.76-8.188-14.182-3.503-31.826 10.669-40.008 4.4-2.54 9.157-3.832 13.887-3.955z m-47.733 62.357c17.078 25.077 51.201 33.349 77.9 17.934 7.904-4.564 14.228-10.805 19.038-17.934 5.799 5.134 10.881 11.275 14.991 18.394 4.077 7.061 6.808 14.534 8.37 22.073-8.517 0.646-17.06 3.093-24.925 7.634-26.69 15.41-36.647 49.093-23.452 76.428-15.53 5.286-32.003 5.119-46.906 0.092 8.114-16.946 8.1-37.533-1.931-54.907-10.038-17.387-27.811-27.746-46.538-29.155 3.096-15.392 11.144-29.767 23.453-40.559z m123.977 69.714c10.347-0.269 20.473 4.934 26.12 14.716 8.188 14.182 3.503 31.826-10.668 40.007-14.154 8.172-31.816 3.427-40.008-10.76-8.188-14.182-3.503-31.826 10.669-40.008 4.4-2.54 9.157-3.832 13.887-3.955z m-152.58 0.092c10.405-0.27 20.486 4.866 26.12 14.624 8.188 14.182 3.503 31.826-10.669 40.007-14.182 8.188-31.826 3.503-40.007-10.669-8.188-14.182-3.503-31.826 10.668-40.007 4.4-2.54 9.157-3.832 13.888-3.955z" fill="#68d7ff" fill-opacity="1" fill-rule="nonzero" stroke="none" marker="none" visibility="visible" display="inline" overflow="visible" text-indent="0" text-transform="none" direction="ltr" block-progression="tb" baseline-shift="baseline" color="#68d7ff" enable-background="accumulate" data-fill-palette-color="accent" style="     stroke: 10px white;     stroke: white;     stroke-width: 10px; "/></svg>
                            </g>
                        </svg>
                    </g>
                </svg>
            </g>
            <defs/>
        </svg>
        <rect width="1920" height="1080" fill="none" stroke="none" visibility="hidden"/>
    </g>
</svg>