<?xml version="1.0" encoding="UTF-8"?>
<svg data-background-color="#ffffff" viewBox="0 0 395.52 97.248" xmlns="http://www.w3.org/2000/svg">
<svg width="395.52" height="97.248" viewBox="0 0 395.52 97.24837544499708">
<svg width="395.52" height="97.248" viewBox="0 0 588.6404528256328 144.73181573245407">
<rect class="rect-o-0" x="171.45" width="5" height="144.73" rx="1%" fill="#00ACED" stroke="transparent" stroke-width="0" style="rx:0" data-fill-palette-color="primary" data-palette-color="#00ACED"/>
<g transform="translate(193.12 .36003)">
<svg width="395.52" height="144.01" viewBox="0 0 395.52 144.0117569477155">
<svg width="395.52" height="144.01" viewBox="0 0 395.52 144.0117569477155">
<svg width="395.52" height="144.01" viewBox="0 0 395.52 144.0117569477155">
<g>
<svg width="395.52" height="144.01" data-palette-color="#00ACED" viewBox="2.84999942779541 -35.30000305175781 213.30001831054688 74.30000305175781">
<svg/>
<svg/>
<g class="wordmark-text-0" font-family="none" font-size="none" font-weight="none" stroke-dasharray="" stroke-miterlimit="10" text-anchor="none" data-fill-palette-color="primary">
<path d="m14.9 0.35c-2.3 0-4.36-0.41-6.18-1.23-1.813-0.813-3.237-1.947-4.27-3.4-1.033-1.447-1.567-3.12-1.6-5.02h4.85c0.167 1.633 0.843 3.007 2.03 4.12 1.18 1.12 2.903 1.68 5.17 1.68 2.167 0 3.877-0.543 5.13-1.63 1.247-1.08 1.87-2.47 1.87-4.17 0-1.333-0.367-2.417-1.1-3.25s-1.65-1.467-2.75-1.9-2.583-0.9-4.45-1.4c-2.3-0.6-4.14-1.2-5.52-1.8-1.387-0.6-2.57-1.543-3.55-2.83-0.987-1.28-1.48-3.003-1.48-5.17 0-1.9 0.483-3.583 1.45-5.05s2.327-2.6 4.08-3.4c1.747-0.8 3.753-1.2 6.02-1.2 3.267 0 5.943 0.817 8.03 2.45 2.08 1.633 3.253 3.8 3.52 6.5h-5c-0.167-1.333-0.867-2.51-2.1-3.53-1.233-1.013-2.867-1.52-4.9-1.52-1.9 0-3.45 0.49-4.65 1.47-1.2 0.987-1.8 2.363-1.8 4.13 0 1.267 0.36 2.3 1.08 3.1 0.713 0.8 1.597 1.407 2.65 1.82 1.047 0.42 2.52 0.897 4.42 1.43 2.3 0.633 4.15 1.26 5.55 1.88 1.4 0.613 2.6 1.56 3.6 2.84 1 1.287 1.5 3.03 1.5 5.23 0 1.7-0.45 3.3-1.35 4.8s-2.233 2.717-4 3.65-3.85 1.4-6.25 1.4zm34.1 0c-3.233 0-6.183-0.76-8.85-2.28-2.667-1.513-4.773-3.63-6.32-6.35-1.553-2.713-2.33-5.77-2.33-9.17s0.777-6.46 2.33-9.18c1.547-2.713 3.653-4.83 6.32-6.35 2.667-1.513 5.617-2.27 8.85-2.27 3.267 0 6.233 0.757 8.9 2.27 2.667 1.52 4.767 3.63 6.3 6.33s2.3 5.767 2.3 9.2-0.767 6.5-2.3 9.2-3.633 4.807-6.3 6.32c-2.667 1.52-5.633 2.28-8.9 2.28zm0-3.95c2.433 0 4.627-0.567 6.58-1.7 1.947-1.133 3.48-2.75 4.6-4.85 1.113-2.1 1.67-4.533 1.67-7.3 0-2.8-0.557-5.243-1.67-7.33-1.12-2.08-2.647-3.687-4.58-4.82s-4.133-1.7-6.6-1.7-4.667 0.567-6.6 1.7-3.457 2.74-4.57 4.82c-1.12 2.087-1.68 4.53-1.68 7.33 0 2.767 0.56 5.2 1.68 7.3 1.113 2.1 2.647 3.717 4.6 4.85 1.947 1.133 4.137 1.7 6.57 1.7zm21.8-13.85c0-3.4 0.767-6.46 2.3-9.18 1.533-2.713 3.627-4.837 6.28-6.37 2.647-1.533 5.587-2.3 8.82-2.3 3.8 0 7.117 0.917 9.95 2.75s4.9 4.433 6.2 7.8h-5.45c-0.967-2.1-2.357-3.717-4.17-4.85-1.82-1.133-3.997-1.7-6.53-1.7-2.433 0-4.617 0.567-6.55 1.7s-3.45 2.74-4.55 4.82c-1.1 2.087-1.65 4.53-1.65 7.33 0 2.767 0.55 5.19 1.65 7.27 1.1 2.087 2.617 3.697 4.55 4.83s4.117 1.7 6.55 1.7c2.533 0 4.71-0.56 6.53-1.68 1.813-1.113 3.203-2.72 4.17-4.82h5.45c-1.3 3.333-3.367 5.907-6.2 7.72-2.833 1.82-6.15 2.73-9.95 2.73-3.233 0-6.173-0.76-8.82-2.28-2.653-1.513-4.747-3.62-6.28-6.32s-2.3-5.75-2.3-9.15zm40.3-17.4h4.55v34.85h-4.55zm35.7 34.85-2.8-7.75h-15.2l-2.8 7.75h-4.8l12.6-34.65h5.25l12.55 34.65zm-16.7-11.45h12.6l-6.3-17.6zm31.55-23.4v31.15h12.2v3.7h-16.75v-34.85z" fill="#00ACED" style="mix-blend-mode:normal" data-fill-palette-color="primary" xmlns="http://www.w3.org/2000/svg"/>
<path d="m3.85 3.8h4.55v34.85h-4.55zm39.7-0.05v34.9h-4.55l-18.3-27.75v27.75h-4.55v-34.9h4.55l18.3 27.7v-27.7zm18.8 35.25c-2.3 0-4.357-0.41-6.17-1.23-1.82-0.813-3.247-1.947-4.28-3.4-1.033-1.447-1.567-3.12-1.6-5.02h4.85c0.167 1.633 0.843 3.007 2.03 4.12 1.18 1.12 2.903 1.68 5.17 1.68 2.167 0 3.877-0.543 5.13-1.63 1.247-1.08 1.87-2.47 1.87-4.17 0-1.333-0.367-2.417-1.1-3.25s-1.65-1.467-2.75-1.9-2.583-0.9-4.45-1.4c-2.3-0.6-4.14-1.2-5.52-1.8-1.387-0.6-2.57-1.543-3.55-2.83-0.987-1.28-1.48-3.003-1.48-5.17 0-1.9 0.483-3.583 1.45-5.05s2.327-2.6 4.08-3.4c1.747-0.8 3.753-1.2 6.02-1.2 3.267 0 5.943 0.817 8.03 2.45 2.08 1.633 3.253 3.8 3.52 6.5h-5c-0.167-1.333-0.867-2.51-2.1-3.53-1.233-1.013-2.867-1.52-4.9-1.52-1.9 0-3.45 0.49-4.65 1.47-1.2 0.987-1.8 2.363-1.8 4.13 0 1.267 0.36 2.3 1.08 3.1 0.713 0.8 1.597 1.407 2.65 1.82 1.047 0.42 2.52 0.897 4.42 1.43 2.3 0.633 4.15 1.26 5.55 1.88 1.4 0.613 2.6 1.56 3.6 2.84 1 1.287 1.5 3.03 1.5 5.23 0 1.7-0.45 3.3-1.35 4.8s-2.233 2.717-4 3.65-3.85 1.4-6.25 1.4zm18.3-35.2h4.55v34.85h-4.55zm44.15 10.1h-5.45c-0.967-2.033-2.367-3.61-4.2-4.73-1.833-1.113-3.967-1.67-6.4-1.67s-4.623 0.557-6.57 1.67c-1.953 1.12-3.487 2.72-4.6 4.8-1.12 2.087-1.68 4.497-1.68 7.23s0.56 5.133 1.68 7.2c1.113 2.067 2.647 3.657 4.6 4.77 1.947 1.12 4.137 1.68 6.57 1.68 3.4 0 6.2-1.017 8.4-3.05s3.483-4.783 3.85-8.25h-13.9v-3.7h18.75v3.5c-0.267 2.867-1.167 5.49-2.7 7.87-1.533 2.387-3.55 4.27-6.05 5.65-2.5 1.387-5.283 2.08-8.35 2.08-3.233 0-6.183-0.76-8.85-2.28-2.667-1.513-4.773-3.62-6.32-6.32-1.553-2.7-2.33-5.75-2.33-9.15s0.777-6.46 2.33-9.18c1.547-2.713 3.653-4.83 6.32-6.35 2.667-1.513 5.617-2.27 8.85-2.27 3.7 0 6.977 0.917 9.83 2.75 2.847 1.833 4.92 4.417 6.22 7.75zm29.35-10.1h4.55v34.85h-4.55v-15.8h-17.75v15.8h-4.55v-34.85h4.55v15.3h17.75zm10.15 0h23.6v3.7h-9.5v31.15h-4.55v-31.15h-9.55zm40.25 35.2c-2.3 0-4.357-0.41-6.17-1.23-1.82-0.813-3.247-1.947-4.28-3.4-1.033-1.447-1.567-3.12-1.6-5.02h4.85c0.167 1.633 0.843 3.007 2.03 4.12 1.18 1.12 2.903 1.68 5.17 1.68 2.167 0 3.877-0.543 5.13-1.63 1.247-1.08 1.87-2.47 1.87-4.17 0-1.333-0.367-2.417-1.1-3.25s-1.65-1.467-2.75-1.9-2.583-0.9-4.45-1.4c-2.3-0.6-4.143-1.2-5.53-1.8-1.38-0.6-2.56-1.543-3.54-2.83-0.987-1.28-1.48-3.003-1.48-5.17 0-1.9 0.483-3.583 1.45-5.05s2.323-2.6 4.07-3.4c1.753-0.8 3.763-1.2 6.03-1.2 3.267 0 5.943 0.817 8.03 2.45 2.08 1.633 3.253 3.8 3.52 6.5h-5c-0.167-1.333-0.867-2.51-2.1-3.53-1.233-1.013-2.867-1.52-4.9-1.52-1.9 0-3.45 0.49-4.65 1.47-1.2 0.987-1.8 2.363-1.8 4.13 0 1.267 0.36 2.3 1.08 3.1 0.713 0.8 1.597 1.407 2.65 1.82 1.047 0.42 2.52 0.897 4.42 1.43 2.3 0.633 4.15 1.26 5.55 1.88 1.4 0.613 2.6 1.56 3.6 2.84 1 1.287 1.5 3.03 1.5 5.23 0 1.7-0.45 3.3-1.35 4.8s-2.233 2.717-4 3.65-3.85 1.4-6.25 1.4z" fill="#68D7FF" style="mix-blend-mode:normal" data-fill-palette-color="secondary" xmlns="http://www.w3.org/2000/svg"/>
</g>
</svg>
</g>
</svg>
</svg>
</svg>
</g>
<g transform="translate(0 .36003)">
<svg width="155.77" height="144.01" viewBox="0 0 155.77208870357344 144.0117569477155">
<svg class="icon-icon-0" width="155.77" height="144.01" fill-rule="evenodd" style="" data-fill-palette-color="accent" version="1.1" viewBox="15.000003814697266 25.19209861755371 270 249.6157989501953" xmlSpace="preserve" xmlns="http://www.w3.org/2000/svg" xmlnsCc="http://creativecommons.org/ns#" xmlnsDc="http://purl.org/dc/elements/1.1/" xmlnsRdf="http://www.w3.org/1999/02/22-rdf-syntax-ns#" xmlnsSvg="http://www.w3.org/2000/svg"><path d="m148.53 25.212c-9.466 0.246-19.104 2.758-27.867 7.817-19.836 11.452-30.42 33.007-29.155 54.539-25.848 17.885-41.201 46.145-43.778 75.877-1.146 0.565-2.283 1.101-3.403 1.747-27.952 16.138-37.653 52.35-21.521 80.291 16.138 27.952 52.35 37.653 80.291 21.521 1.101-0.636 2.175-1.327 3.219-2.023 27.083 12.662 59.289 13.491 87.74 0 17.991 11.767 41.843 13.442 61.621 2.023 27.952-16.138 37.653-52.35 21.521-80.291-5.99-10.376-14.772-18.268-24.832-23.268-1.191-14.657-5.52-29.23-13.336-42.767-7.809-13.526-18.345-24.574-30.442-32.926 0.751-11.217-1.634-22.717-7.634-33.11-11.073-19.178-31.538-29.973-52.424-29.43zm0.736 29.43c10.347-0.269 20.473 4.934 26.12 14.716 8.188 14.182 3.503 31.826-10.669 40.007-14.154 8.172-31.816 3.427-40.007-10.76-8.188-14.182-3.503-31.826 10.669-40.008 4.4-2.54 9.157-3.832 13.887-3.955zm-47.733 62.357c17.078 25.077 51.201 33.349 77.9 17.934 7.904-4.564 14.228-10.805 19.038-17.934 5.799 5.134 10.881 11.275 14.991 18.394 4.077 7.061 6.808 14.534 8.37 22.073-8.517 0.646-17.06 3.093-24.925 7.634-26.69 15.41-36.647 49.093-23.452 76.428-15.53 5.286-32.003 5.119-46.906 0.092 8.114-16.946 8.1-37.533-1.931-54.907-10.038-17.387-27.811-27.746-46.538-29.155 3.096-15.392 11.144-29.767 23.453-40.559zm123.98 69.714c10.347-0.269 20.473 4.934 26.12 14.716 8.188 14.182 3.503 31.826-10.668 40.007-14.154 8.172-31.816 3.427-40.008-10.76-8.188-14.182-3.503-31.826 10.669-40.008 4.4-2.54 9.157-3.832 13.887-3.955zm-152.58 0.092c10.405-0.27 20.486 4.866 26.12 14.624 8.188 14.182 3.503 31.826-10.669 40.007-14.182 8.188-31.826 3.503-40.007-10.669-8.188-14.182-3.503-31.826 10.668-40.007 4.4-2.54 9.157-3.832 13.888-3.955z" color="#68D7FF" fill="#68D7FF" fill-rule="nonzero" overflow="visible" stroke="transparent" stroke-width="10px" block-progression="tb" data-fill-palette-color="accent" text-indent="0" text-transform="none"/></svg>
</svg>
</g>
</svg>
</svg>
<rect width="395.52" height="97.248" fill="none" visibility="hidden"/>
</svg>
